<svg xmlns="http://www.w3.org/2000/svg" xmlns:xlink="http://www.w3.org/1999/xlink" width="478" zoomAndPan="magnify" viewBox="0 0 358.5 121.500001" height="162" preserveAspectRatio="xMidYMid meet" version="1.0"><defs><g/><clipPath id="afd793aab4"><path d="M 74.703125 54.671875 L 78.4375 54.671875 L 78.4375 69.488281 L 74.703125 69.488281 Z M 74.703125 54.671875 " clip-rule="nonzero"/></clipPath></defs><g clip-path="url(#afd793aab4)"><path fill="#15223e" d="M 74.703125 54.671875 L 78.4375 54.671875 L 78.4375 69.496094 L 74.703125 69.496094 Z M 74.703125 54.671875 " fill-opacity="1" fill-rule="nonzero"/></g><g fill="#ffffff" fill-opacity="1"><g transform="translate(28.834989, 78.669047)"><g><path d="M 18.421875 -37.796875 C 22.367188 -37.796875 25.828125 -36.992188 28.796875 -35.390625 C 31.773438 -33.796875 34.0625 -31.570312 35.65625 -28.71875 C 37.257812 -25.875 38.0625 -22.632812 38.0625 -19 C 38.0625 -15.40625 37.257812 -12.164062 35.65625 -9.28125 C 34.0625 -6.40625 31.773438 -4.140625 28.796875 -2.484375 C 25.828125 -0.828125 22.367188 0 18.421875 0 L 2.671875 0 L 2.671875 -37.796875 Z M 17.359375 -10.578125 C 20.023438 -10.578125 22.140625 -11.304688 23.703125 -12.765625 C 25.265625 -14.222656 26.046875 -16.300781 26.046875 -19 C 26.046875 -21.707031 25.265625 -23.789062 23.703125 -25.25 C 22.140625 -26.707031 20.023438 -27.4375 17.359375 -27.4375 L 14.515625 -27.4375 L 14.515625 -10.578125 Z M 17.359375 -10.578125 "/></g></g></g><g fill="#ffffff" fill-opacity="1"><g transform="translate(68.501867, 78.669047)"><g><path d="M 8.65625 -32.515625 C 6.582031 -32.515625 4.921875 -33.066406 3.671875 -34.171875 C 2.429688 -35.273438 1.8125 -36.660156 1.8125 -38.328125 C 1.8125 -40.035156 2.429688 -41.453125 3.671875 -42.578125 C 4.921875 -43.703125 6.582031 -44.265625 8.65625 -44.265625 C 10.675781 -44.265625 12.3125 -43.703125 13.5625 -42.578125 C 14.8125 -41.453125 15.4375 -40.035156 15.4375 -38.328125 C 15.4375 -36.660156 14.8125 -35.273438 13.5625 -34.171875 C 12.3125 -33.066406 10.675781 -32.515625 8.65625 -32.515625 Z M 14.515625 -30.109375 L 14.515625 0 L 2.671875 0 L 2.671875 -30.109375 Z M 14.515625 -30.109375 "/></g></g></g><g fill="#ffffff" fill-opacity="1"><g transform="translate(85.69263, 78.669047)"><g><path d="M 13.515625 -30.484375 C 15.460938 -30.484375 17.148438 -30.082031 18.578125 -29.28125 C 20.003906 -28.476562 21.09375 -27.382812 21.84375 -26 L 21.84375 -30.109375 L 33.640625 -30.109375 L 33.640625 -0.53125 C 33.640625 2.28125 33.125 4.84375 32.09375 7.15625 C 31.0625 9.46875 29.394531 11.316406 27.09375 12.703125 C 24.800781 14.097656 21.859375 14.796875 18.265625 14.796875 C 13.421875 14.796875 9.582031 13.664062 6.75 11.40625 C 3.925781 9.144531 2.316406 6.070312 1.921875 2.1875 L 13.5625 2.1875 C 13.882812 3.75 15.164062 4.53125 17.40625 4.53125 C 18.789062 4.53125 19.875 4.175781 20.65625 3.46875 C 21.445312 2.757812 21.84375 1.425781 21.84375 -0.53125 L 21.84375 -4.109375 C 21.09375 -2.722656 20.003906 -1.628906 18.578125 -0.828125 C 17.148438 -0.0234375 15.460938 0.375 13.515625 0.375 C 11.160156 0.375 9.039062 -0.238281 7.15625 -1.46875 C 5.269531 -2.695312 3.78125 -4.472656 2.6875 -6.796875 C 1.601562 -9.128906 1.0625 -11.882812 1.0625 -15.0625 C 1.0625 -18.226562 1.601562 -20.972656 2.6875 -23.296875 C 3.78125 -25.628906 5.269531 -27.410156 7.15625 -28.640625 C 9.039062 -29.867188 11.160156 -30.484375 13.515625 -30.484375 Z M 21.84375 -15.0625 C 21.84375 -16.65625 21.429688 -17.894531 20.609375 -18.78125 C 19.785156 -19.675781 18.734375 -20.125 17.453125 -20.125 C 16.171875 -20.125 15.117188 -19.675781 14.296875 -18.78125 C 13.484375 -17.894531 13.078125 -16.65625 13.078125 -15.0625 C 13.078125 -13.457031 13.484375 -12.207031 14.296875 -11.3125 C 15.117188 -10.425781 16.171875 -9.984375 17.453125 -9.984375 C 18.734375 -9.984375 19.785156 -10.425781 20.609375 -11.3125 C 21.429688 -12.207031 21.84375 -13.457031 21.84375 -15.0625 Z M 21.84375 -15.0625 "/></g></g></g><g fill="#ffffff" fill-opacity="1"><g transform="translate(121.9961, 78.669047)"><g><path d="M 8.65625 -32.515625 C 6.582031 -32.515625 4.921875 -33.066406 3.671875 -34.171875 C 2.429688 -35.273438 1.8125 -36.660156 1.8125 -38.328125 C 1.8125 -40.035156 2.429688 -41.453125 3.671875 -42.578125 C 4.921875 -43.703125 6.582031 -44.265625 8.65625 -44.265625 C 10.675781 -44.265625 12.3125 -43.703125 13.5625 -42.578125 C 14.8125 -41.453125 15.4375 -40.035156 15.4375 -38.328125 C 15.4375 -36.660156 14.8125 -35.273438 13.5625 -34.171875 C 12.3125 -33.066406 10.675781 -32.515625 8.65625 -32.515625 Z M 14.515625 -30.109375 L 14.515625 0 L 2.671875 0 L 2.671875 -30.109375 Z M 14.515625 -30.109375 "/></g></g></g><g fill="#ffffff" fill-opacity="1"><g transform="translate(139.188605, 78.669047)"><g><path d="M 16.234375 0.375 C 13.742188 0.375 11.5 -0.0625 9.5 -0.9375 C 7.507812 -1.8125 5.941406 -3.046875 4.796875 -4.640625 C 3.660156 -6.242188 3.09375 -8.113281 3.09375 -10.25 L 9.609375 -10.25 C 9.753906 -8.644531 10.382812 -7.328125 11.5 -6.296875 C 12.625 -5.265625 14.203125 -4.75 16.234375 -4.75 C 18.328125 -4.75 19.960938 -5.253906 21.140625 -6.265625 C 22.316406 -7.285156 22.90625 -8.597656 22.90625 -10.203125 C 22.90625 -11.441406 22.539062 -12.453125 21.8125 -13.234375 C 21.082031 -14.023438 20.171875 -14.632812 19.078125 -15.0625 C 17.992188 -15.488281 16.492188 -15.945312 14.578125 -16.4375 C 12.148438 -17.082031 10.179688 -17.734375 8.671875 -18.390625 C 7.160156 -19.046875 5.867188 -20.066406 4.796875 -21.453125 C 3.734375 -22.847656 3.203125 -24.703125 3.203125 -27.015625 C 3.203125 -29.148438 3.734375 -31.019531 4.796875 -32.625 C 5.867188 -34.226562 7.363281 -35.457031 9.28125 -36.3125 C 11.207031 -37.164062 13.4375 -37.59375 15.96875 -37.59375 C 19.5625 -37.59375 22.503906 -36.691406 24.796875 -34.890625 C 27.097656 -33.085938 28.375 -30.625 28.625 -27.5 L 21.890625 -27.5 C 21.785156 -28.851562 21.144531 -30.007812 19.96875 -30.96875 C 18.789062 -31.925781 17.242188 -32.40625 15.328125 -32.40625 C 13.578125 -32.40625 12.148438 -31.957031 11.046875 -31.0625 C 9.941406 -30.175781 9.390625 -28.898438 9.390625 -27.234375 C 9.390625 -26.085938 9.738281 -25.148438 10.4375 -24.421875 C 11.132812 -23.691406 12.015625 -23.113281 13.078125 -22.6875 C 14.148438 -22.257812 15.609375 -21.796875 17.453125 -21.296875 C 19.910156 -20.617188 21.910156 -19.941406 23.453125 -19.265625 C 25.003906 -18.597656 26.320312 -17.5625 27.40625 -16.15625 C 28.5 -14.75 29.046875 -12.867188 29.046875 -10.515625 C 29.046875 -8.628906 28.535156 -6.847656 27.515625 -5.171875 C 26.503906 -3.503906 25.03125 -2.160156 23.09375 -1.140625 C 21.15625 -0.128906 18.867188 0.375 16.234375 0.375 Z M 16.234375 0.375 "/></g></g></g><g fill="#ffffff" fill-opacity="1"><g transform="translate(171.434626, 78.669047)"><g><path d="M 10.09375 -25.09375 C 11.125 -26.445312 12.53125 -27.585938 14.3125 -28.515625 C 16.09375 -29.441406 18.101562 -29.90625 20.34375 -29.90625 C 22.90625 -29.90625 25.242188 -29.269531 27.359375 -28 C 29.484375 -26.738281 31.148438 -24.96875 32.359375 -22.6875 C 33.566406 -20.414062 34.171875 -17.800781 34.171875 -14.84375 C 34.171875 -11.882812 33.566406 -9.238281 32.359375 -6.90625 C 31.148438 -4.582031 29.484375 -2.769531 27.359375 -1.46875 C 25.242188 -0.164062 22.90625 0.484375 20.34375 0.484375 C 18.101562 0.484375 16.109375 0.03125 14.359375 -0.875 C 12.617188 -1.789062 11.195312 -2.921875 10.09375 -4.265625 L 10.09375 13.984375 L 4 13.984375 L 4 -29.421875 L 10.09375 -29.421875 Z M 27.984375 -14.84375 C 27.984375 -16.875 27.5625 -18.625 26.71875 -20.09375 C 25.882812 -21.570312 24.78125 -22.691406 23.40625 -23.453125 C 22.039062 -24.222656 20.570312 -24.609375 19 -24.609375 C 17.476562 -24.609375 16.03125 -24.21875 14.65625 -23.4375 C 13.28125 -22.65625 12.175781 -21.515625 11.34375 -20.015625 C 10.507812 -18.523438 10.09375 -16.765625 10.09375 -14.734375 C 10.09375 -12.703125 10.507812 -10.929688 11.34375 -9.421875 C 12.175781 -7.910156 13.28125 -6.765625 14.65625 -5.984375 C 16.03125 -5.203125 17.476562 -4.8125 19 -4.8125 C 20.570312 -4.8125 22.039062 -5.207031 23.40625 -6 C 24.78125 -6.800781 25.882812 -7.96875 26.71875 -9.5 C 27.5625 -11.03125 27.984375 -12.8125 27.984375 -14.84375 Z M 27.984375 -14.84375 "/></g></g></g><g fill="#ffffff" fill-opacity="1"><g transform="translate(207.631318, 78.669047)"><g><path d="M 19.21875 -29.90625 C 21.457031 -29.90625 23.457031 -29.421875 25.21875 -28.453125 C 26.988281 -27.492188 28.378906 -26.070312 29.390625 -24.1875 C 30.398438 -22.300781 30.90625 -20.023438 30.90625 -17.359375 L 30.90625 0 L 24.875 0 L 24.875 -16.4375 C 24.875 -19.070312 24.210938 -21.09375 22.890625 -22.5 C 21.578125 -23.90625 19.785156 -24.609375 17.515625 -24.609375 C 15.234375 -24.609375 13.425781 -23.90625 12.09375 -22.5 C 10.757812 -21.09375 10.09375 -19.070312 10.09375 -16.4375 L 10.09375 0 L 4 0 L 4 -39.515625 L 10.09375 -39.515625 L 10.09375 -26 C 11.125 -27.25 12.429688 -28.210938 14.015625 -28.890625 C 15.597656 -29.566406 17.332031 -29.90625 19.21875 -29.90625 Z M 19.21875 -29.90625 "/></g></g></g><g fill="#ffffff" fill-opacity="1"><g transform="translate(242.27977, 78.669047)"><g><path d="M 30.96875 -15.4375 C 30.96875 -14.332031 30.894531 -13.332031 30.75 -12.4375 L 8.28125 -12.4375 C 8.457031 -10.09375 9.328125 -8.207031 10.890625 -6.78125 C 12.453125 -5.351562 14.375 -4.640625 16.65625 -4.640625 C 19.925781 -4.640625 22.238281 -6.007812 23.59375 -8.75 L 30.171875 -8.75 C 29.273438 -6.050781 27.660156 -3.835938 25.328125 -2.109375 C 23.003906 -0.378906 20.113281 0.484375 16.65625 0.484375 C 13.84375 0.484375 11.320312 -0.144531 9.09375 -1.40625 C 6.875 -2.675781 5.128906 -4.457031 3.859375 -6.75 C 2.597656 -9.050781 1.96875 -11.710938 1.96875 -14.734375 C 1.96875 -17.765625 2.582031 -20.425781 3.8125 -22.71875 C 5.039062 -25.007812 6.765625 -26.78125 8.984375 -28.03125 C 11.210938 -29.28125 13.769531 -29.90625 16.65625 -29.90625 C 19.4375 -29.90625 21.910156 -29.296875 24.078125 -28.078125 C 26.253906 -26.867188 27.945312 -25.171875 29.15625 -22.984375 C 30.363281 -20.796875 30.96875 -18.28125 30.96875 -15.4375 Z M 24.609375 -17.359375 C 24.578125 -19.597656 23.773438 -21.390625 22.203125 -22.734375 C 20.640625 -24.085938 18.703125 -24.765625 16.390625 -24.765625 C 14.285156 -24.765625 12.484375 -24.097656 10.984375 -22.765625 C 9.492188 -21.429688 8.609375 -19.628906 8.328125 -17.359375 Z M 24.609375 -17.359375 "/></g></g></g><g fill="#ffffff" fill-opacity="1"><g transform="translate(275.219825, 78.669047)"><g><path d="M 10.09375 -25.140625 C 10.976562 -26.640625 12.160156 -27.804688 13.640625 -28.640625 C 15.117188 -29.484375 16.875 -29.90625 18.90625 -29.90625 L 18.90625 -23.59375 L 17.359375 -23.59375 C 14.972656 -23.59375 13.164062 -22.988281 11.9375 -21.78125 C 10.707031 -20.570312 10.09375 -18.472656 10.09375 -15.484375 L 10.09375 0 L 4 0 L 4 -29.421875 L 10.09375 -29.421875 Z M 10.09375 -25.140625 "/></g></g></g><g fill="#ffffff" fill-opacity="1"><g transform="translate(295.720608, 78.669047)"><g><path d="M 30.96875 -15.4375 C 30.96875 -14.332031 30.894531 -13.332031 30.75 -12.4375 L 8.28125 -12.4375 C 8.457031 -10.09375 9.328125 -8.207031 10.890625 -6.78125 C 12.453125 -5.351562 14.375 -4.640625 16.65625 -4.640625 C 19.925781 -4.640625 22.238281 -6.007812 23.59375 -8.75 L 30.171875 -8.75 C 29.273438 -6.050781 27.660156 -3.835938 25.328125 -2.109375 C 23.003906 -0.378906 20.113281 0.484375 16.65625 0.484375 C 13.84375 0.484375 11.320312 -0.144531 9.09375 -1.40625 C 6.875 -2.675781 5.128906 -4.457031 3.859375 -6.75 C 2.597656 -9.050781 1.96875 -11.710938 1.96875 -14.734375 C 1.96875 -17.765625 2.582031 -20.425781 3.8125 -22.71875 C 5.039062 -25.007812 6.765625 -26.78125 8.984375 -28.03125 C 11.210938 -29.28125 13.769531 -29.90625 16.65625 -29.90625 C 19.4375 -29.90625 21.910156 -29.296875 24.078125 -28.078125 C 26.253906 -26.867188 27.945312 -25.171875 29.15625 -22.984375 C 30.363281 -20.796875 30.96875 -18.28125 30.96875 -15.4375 Z M 24.609375 -17.359375 C 24.578125 -19.597656 23.773438 -21.390625 22.203125 -22.734375 C 20.640625 -24.085938 18.703125 -24.765625 16.390625 -24.765625 C 14.285156 -24.765625 12.484375 -24.097656 10.984375 -22.765625 C 9.492188 -21.429688 8.609375 -19.628906 8.328125 -17.359375 Z M 24.609375 -17.359375 "/></g></g></g></svg>